<svg width="150" height="49" viewBox="0 0 150 49" fill="none" xmlns="http://www.w3.org/2000/svg">
<rect y="0.390625" width="149.143" height="48" rx="4.57143" fill="white"/>
<g clip-path="url(#clip0_1647_108911)">
<path fill-rule="evenodd" clip-rule="evenodd" d="M21.6026 33.7921V31.0944H33.7426V33.7921H21.6026ZM31.1639 20.3032H24.1801L27.6726 25.1368L31.1639 20.3032ZM36.4403 17.6055L27.6726 29.7455L18.9048 17.6055H36.4403Z" fill="#00B3E6"/>
<path d="M47.1405 31.0939V26.7639H42.9882V31.0939H40.4849V20.3028H42.9882V24.5259H47.1405V20.3005H49.6438V31.0916L47.1405 31.0939Z" fill="black"/>
<path d="M52.8024 31.0939V20.3028H59.6401V22.597H55.3057V24.5259H59.2523V26.7055H55.3057V28.8109H59.6401V31.0939H52.8024Z" fill="black"/>
<path d="M62.6224 31.0939V20.3028H65.1246V28.8132H69.4545V31.0962L62.6224 31.0939Z" fill="black"/>
<path d="M71.5552 31.0939V20.3028H74.0619V28.8132H78.3907V31.0962L71.5552 31.0939Z" fill="black"/>
<path d="M85.4521 31.2704C82.1091 31.2704 79.9745 28.8705 79.9745 25.704C79.9745 22.5375 82.2125 20.123 85.5555 20.123C88.8985 20.123 91.0331 22.524 91.0331 25.704C91.0331 28.884 88.7805 31.2704 85.4521 31.2704ZM85.4937 22.3621C83.7862 22.3621 82.6374 23.7605 82.6374 25.704C82.6374 27.6475 83.7862 29.047 85.4937 29.047C87.2012 29.047 88.3511 27.6329 88.3511 25.704C88.3511 23.7751 87.2045 22.3621 85.4937 22.3621Z" fill="black"/>
<path d="M96.4423 31.2704C95.2204 31.2704 93.7445 30.7848 92.8059 30.1654L93.4972 27.8982C94.3661 28.531 95.5003 28.9436 96.5164 28.9436C97.4 28.9436 97.7383 28.531 97.7383 28.0016C97.7383 27.4396 97.4584 27.0585 95.8094 26.3964C93.9097 25.6309 93.2499 24.526 93.2499 23.2299C93.2499 21.6562 94.5302 20.123 97.0481 20.123C98.2262 20.123 99.4345 20.5355 100.067 20.9626L99.4323 23.2007C98.8129 22.7735 97.8125 22.3172 97.0459 22.3172C96.1331 22.3172 95.7656 22.7443 95.7656 23.1861C95.7656 23.8931 96.3096 24.1292 97.6652 24.7024C99.6818 25.5567 100.285 26.5291 100.285 27.9128C100.285 29.636 99.0344 31.2704 96.4423 31.2704Z" fill="black"/>
<path d="M102.97 31.0939V20.3028H105.473V31.0939H102.97Z" fill="black"/>
<path d="M117.953 25.0273V30.1812C116.715 30.9157 115.298 31.2927 113.859 31.2704C110.693 31.2704 108.19 29.0031 108.19 25.704C108.19 22.4048 110.723 20.123 113.991 20.123C115.405 20.123 116.538 20.4917 117.613 21.0514L116.568 23.068C115.824 22.6767 114.998 22.4697 114.158 22.4644C112.007 22.4644 110.86 23.8043 110.86 25.704C110.86 27.7655 112.243 29.047 114.007 29.047C114.802 29.047 115.2 28.9582 115.598 28.7525V27.1619H113.432V25.0262L117.953 25.0273Z" fill="black"/>
<path d="M129.841 31.2996L123.332 25.4545V31.0939H120.829V20.1533L121.166 20.0938L127.587 25.8951V20.3006H130.09V31.2558L129.841 31.2996Z" fill="black"/>
</g>
<defs>
<clipPath id="clip0_1647_108911">
<rect width="111.333" height="32" fill="white" transform="translate(18.9048 8.39062)"/>
</clipPath>
</defs>
</svg>
