<svg width="150" height="49" viewBox="0 0 150 49" fill="none" xmlns="http://www.w3.org/2000/svg">
<rect y="0.390625" width="149.143" height="48" rx="4.57143" fill="white"/>
<g clip-path="url(#clip0_1647_108869)">
<path fill-rule="evenodd" clip-rule="evenodd" d="M98.2999 29.4692C100.499 29.4692 102.288 27.7159 102.288 25.5608C102.288 23.4057 100.499 21.6524 98.2999 21.6524C96.101 21.6524 94.3118 23.4057 94.3118 25.5608C94.3118 27.7159 96.101 29.4692 98.2999 29.4692ZM102.288 15.8477H102.396H104.178V31.3341H102.288V29.7878C101.198 30.7783 99.7917 31.3208 98.2999 31.3208C95.0592 31.3208 92.4226 28.7369 92.4226 25.5608C92.4226 22.3846 95.0592 19.8007 98.2999 19.8007C99.7917 19.8007 101.198 20.3432 102.288 21.3338V15.8477ZM59.1164 29.401C61.3154 29.401 63.1045 27.6477 63.1045 25.4926C63.1045 23.3375 61.3154 21.5842 59.1164 21.5842C56.9172 21.5842 55.1282 23.3375 55.1282 25.4926C55.1282 27.6477 56.9172 29.401 59.1164 29.401ZM55.1282 21.2657C56.2186 20.2752 57.6249 19.7326 59.1164 19.7326C62.3572 19.7326 64.9939 22.3166 64.9939 25.4926C64.9939 28.6687 62.3572 31.2526 59.1164 31.2526C57.6249 31.2526 56.2186 30.7102 55.1282 29.7195V35.2057H53.2388V19.7193H55.1282V21.2657ZM68.5989 24.5933C69.0241 22.843 70.6086 21.5862 72.4159 21.5862C74.1996 21.5862 75.6937 22.8162 76.0919 24.5933H68.5989ZM72.4159 19.7193C69.2236 19.7193 66.6265 22.3246 66.6265 25.5267C66.6265 28.7289 69.2236 31.3341 72.4159 31.3341C74.2035 31.3341 75.8442 30.6627 76.918 29.4921L77.4758 28.8837L77.5477 28.8052L77.4695 28.7328L76.2566 27.6137L76.1784 27.5413L76.1061 27.6199L75.5483 28.2284C74.8368 29.0041 73.6658 29.4673 72.4159 29.4673C70.6086 29.4673 69.0242 28.2105 68.5989 26.4601H78.055V25.5267C78.055 22.2702 75.5779 19.7193 72.4159 19.7193ZM115.349 25.5267C115.349 27.6995 113.56 29.4672 111.361 29.4672C109.162 29.4672 107.373 27.6995 107.373 25.5267C107.373 23.3538 109.162 21.5861 111.361 21.5861C113.56 21.5861 115.349 23.3538 115.349 25.5267ZM111.361 19.7193C108.12 19.7193 105.484 22.3245 105.484 25.5267C105.484 28.7289 108.12 31.3341 111.361 31.3341C114.602 31.3341 117.239 28.7289 117.239 25.5267C117.239 22.3245 114.602 19.7193 111.361 19.7193ZM85.0752 19.7193C83.7624 19.7193 82.5117 20.2192 81.5272 21.1323V19.7193H79.6878V31.3341H81.5272V25.4068C81.5272 23.2922 83.1189 21.5716 85.0752 21.5716C87.032 21.5716 88.6241 23.2922 88.6241 25.4068V31.3341H90.4631V25.4068C90.4631 22.2707 88.0461 19.7193 85.0752 19.7193Z" fill="#1A2022"/>
<path fill-rule="evenodd" clip-rule="evenodd" d="M31.9048 26.9101H40.7936V35.6015L49.6826 26.9101V18.2188H40.7936L31.9048 26.9101Z" fill="#FF4876"/>
</g>
<defs>
<clipPath id="clip0_1647_108869">
<rect width="85.3333" height="32" fill="white" transform="translate(31.9048 8.39062)"/>
</clipPath>
</defs>
</svg>
