<svg width="150" height="49" viewBox="0 0 150 49" fill="none" xmlns="http://www.w3.org/2000/svg">
<rect y="0.390625" width="149.143" height="48" rx="4.57143" fill="white"/>
<g clip-path="url(#clip0_1647_108931)">
<path d="M27.8035 18.2904L26.9116 21.5731L32.0166 18.2717L28.6778 30.7287L32.0687 30.7316L37.001 12.332" fill="#3395FF"/>
<path d="M22.3092 25.4937L20.9048 30.7307H27.8547L30.6986 20.0772L22.3092 25.4937ZM46.4508 20.8831C46.2809 21.5145 45.9536 21.9782 45.4655 22.2744C44.9785 22.57 44.295 22.7184 43.4127 22.7184H40.6096L41.5938 19.0489H44.3969C45.278 19.0489 45.8834 19.1961 46.2118 19.4962C46.5403 19.7964 46.6195 20.2551 46.4508 20.8893V20.8831ZM49.353 20.81C49.7097 19.4849 49.5625 18.4656 48.9101 17.7521C48.2589 17.0443 47.1162 16.6875 45.4853 16.6875H39.2296L35.4638 30.7369H38.503L40.0207 25.0741H42.014C42.4613 25.0741 42.8136 25.1477 43.0707 25.2893C43.3283 25.4365 43.4795 25.6913 43.5259 26.0594L44.0684 30.7369H47.3246L46.7968 26.3765C46.6892 25.4025 46.2435 24.8306 45.4604 24.6607C46.4587 24.3719 47.2951 23.8906 47.969 23.2224C48.6381 22.559 49.1162 21.7277 49.353 20.8157V20.81ZM56.7406 25.7083C56.4858 26.6597 56.0951 27.3789 55.5667 27.8828C55.0378 28.3868 54.4059 28.636 53.6686 28.636C52.9177 28.636 52.4086 28.3925 52.1396 27.8998C51.8701 27.4072 51.861 26.6937 52.1113 25.7593C52.3616 24.8249 52.7608 24.0944 53.3101 23.5678C53.8594 23.0412 54.5016 22.7778 55.2389 22.7778C55.975 22.7778 56.479 23.0327 56.7338 23.5383C56.9943 24.0463 57 24.7728 56.7452 25.7185L56.7406 25.7083ZM58.0725 20.7364L57.692 22.1578C57.5278 21.6481 57.209 21.2404 56.7378 20.9346C56.2655 20.6345 55.6811 20.4816 54.984 20.4816C54.129 20.4816 53.3079 20.7024 52.5207 21.1441C51.7336 21.5858 51.0427 22.2087 50.4538 23.0128C49.8649 23.817 49.4345 24.7287 49.157 25.7536C48.8852 26.7843 48.8286 27.6846 48.9928 28.4661C49.1627 29.2532 49.5194 29.8535 50.0687 30.2725C50.6237 30.6972 51.3315 30.9068 52.1979 30.9068C52.8864 30.9103 53.5671 30.7614 54.1913 30.4707C54.8083 30.1924 55.3572 29.7827 55.7995 29.2702L55.4031 30.7516H58.3421L61.0257 20.7415H58.081L58.0725 20.7364ZM71.5868 20.7364H63.0399L62.4425 22.9675H67.4156L60.8411 28.6473L60.2793 30.7426H69.102L69.6994 28.5114H64.3707L71.046 22.7467L71.5868 20.7364ZM79.1098 25.6913C78.8454 26.6767 78.4529 27.4174 77.9348 27.8998C77.4166 28.3868 76.7892 28.6303 76.0525 28.6303C74.5122 28.6303 74.0059 27.6507 74.5314 25.6913C74.7919 24.7173 75.1861 23.9851 75.7127 23.4919C76.2393 22.997 76.8775 22.7501 77.6279 22.7501C78.364 22.7501 78.8612 22.9953 79.1172 23.4891C79.3731 23.9817 79.3709 24.7162 79.1098 25.6902V25.6913ZM80.8302 21.113C80.1535 20.6917 79.2899 20.481 78.2366 20.481C77.1703 20.481 76.1833 20.6905 75.275 21.1096C74.3704 21.526 73.5755 22.1476 72.9532 22.9251C72.3133 23.7122 71.8529 24.6352 71.5704 25.6885C71.2929 26.7378 71.2589 27.6592 71.4741 28.448C71.6893 29.2351 72.1423 29.841 72.8218 30.2601C73.507 30.6825 74.3791 30.8926 75.4494 30.8926C76.5027 30.8926 77.4823 30.6808 78.3827 30.2595C79.2831 29.8359 80.0532 29.2346 80.6931 28.4418C81.333 27.6524 81.7917 26.7316 82.0748 25.6783C82.358 24.625 82.392 23.7054 82.1768 22.9149C81.9616 22.1277 81.5142 21.5218 80.8404 21.0999L80.8302 21.113ZM91.3222 23.4104L92.0753 20.6866C91.8205 20.5563 91.4864 20.4884 91.0674 20.4884C90.3935 20.4884 89.7479 20.6549 89.125 20.9924C88.5893 21.2789 88.134 21.6832 87.749 22.1895L88.1397 20.7228L87.2863 20.7262H85.1911L82.4899 30.7324H85.4703L86.8718 25.5016C87.0757 24.7411 87.4426 24.1426 87.9721 23.7179C88.4987 23.2914 89.1556 23.078 89.9484 23.078C90.4354 23.078 90.8884 23.1895 91.3188 23.4121L91.3222 23.4104ZM99.6148 25.7395C99.36 26.6738 98.9749 27.3873 98.4482 27.88C97.9216 28.3749 97.2874 28.6218 96.5512 28.6218C95.815 28.6218 95.3111 28.3727 95.0449 27.8743C94.7731 27.3732 94.7674 26.6512 95.0223 25.7021C95.2771 24.7536 95.6678 24.0259 96.2058 23.5219C96.7437 23.014 97.378 22.7603 98.1141 22.7603C98.839 22.7603 99.326 23.0208 99.5865 23.5474C99.847 24.074 99.8526 24.8045 99.6023 25.7389L99.6148 25.7395ZM101.686 21.1294C101.134 20.6877 100.429 20.4668 99.574 20.4668C98.8248 20.4668 98.1107 20.6367 97.4335 20.9799C96.7568 21.3225 96.2075 21.7897 95.7856 22.3809L95.7958 22.3129L96.2958 20.7217H93.3851L92.6433 23.4908L92.6207 23.587L89.5628 34.9942H92.5471L94.0873 29.2521C94.2402 29.7629 94.5517 30.1638 95.0274 30.4538C95.503 30.7426 96.0903 30.8858 96.7885 30.8858C97.6549 30.8858 98.4817 30.6763 99.266 30.2573C100.053 29.8371 100.733 29.2323 101.31 28.4508C101.888 27.6694 102.317 26.7633 102.59 25.7383C102.867 24.7117 102.924 23.796 102.766 22.9947C102.604 22.1923 102.247 21.5711 101.695 21.1317L101.686 21.1294ZM111.585 25.6987C111.331 26.6444 110.94 27.3692 110.413 27.8676C109.887 28.3693 109.252 28.619 108.516 28.619C107.763 28.619 107.253 28.3755 106.987 27.8828C106.715 27.3902 106.71 26.6767 106.959 25.7423C107.208 24.8079 107.606 24.0774 108.155 23.5508C108.704 23.0242 109.347 22.7614 110.084 22.7614C110.82 22.7614 111.319 23.0162 111.579 23.5202C111.84 24.0259 111.841 24.7524 111.588 25.7004L111.585 25.6987ZM112.916 20.7239L112.535 22.1453C112.371 21.6328 112.054 21.2251 111.584 20.9221C111.108 20.6197 110.525 20.4691 109.828 20.4691C108.973 20.4691 108.147 20.69 107.359 21.1317C106.572 21.5734 105.881 22.1929 105.292 22.9947C104.703 23.7966 104.273 24.7105 103.996 25.7355C103.721 26.7644 103.667 27.6665 103.831 28.4514C103.997 29.2329 104.355 29.8365 104.907 30.2578C105.459 30.6769 106.17 30.8887 107.036 30.8887C107.733 30.8887 108.398 30.7437 109.03 30.4526C109.645 30.173 110.193 29.7628 110.634 29.2504L110.238 30.7329H113.177L115.86 20.7268H112.921L112.916 20.7239ZM128.198 20.7273L128.2 20.7245H126.394C126.336 20.7245 126.285 20.7273 126.232 20.7285H125.295L124.814 21.3967L124.695 21.5552L124.644 21.6345L120.836 26.9394L120.048 20.7273H116.929L118.509 30.1672L115.021 34.9976H118.13L118.974 33.801C118.997 33.7659 119.019 33.7365 119.047 33.6991L120.033 32.3004L120.061 32.2607L124.474 26.0034L128.194 20.737L128.2 20.7336H128.198V20.7273Z" fill="black"/>
</g>
<defs>
<clipPath id="clip0_1647_108931">
<rect width="107.333" height="32" fill="white" transform="translate(20.9048 8.39062)"/>
</clipPath>
</defs>
</svg>
