<svg width="150" height="49" viewBox="0 0 150 49" fill="none" xmlns="http://www.w3.org/2000/svg">
<rect y="0.390625" width="149.143" height="48" rx="4.57143" fill="white"/>
<g clip-path="url(#clip0_1647_108889)">
<path fill-rule="evenodd" clip-rule="evenodd" d="M59.9257 22.9448L57.8559 22.4958C56.8202 22.2713 56.2501 21.6325 56.2501 20.6964C56.2501 19.5067 57.3063 18.6092 58.7072 18.6092C60.6458 18.6092 61.2182 20.0354 61.3478 20.4731C61.389 20.6186 61.4902 20.7419 61.6261 20.8099C61.759 20.8779 61.9076 20.888 62.0499 20.8384L63.1409 20.4535C63.2719 20.407 63.3802 20.3122 63.4437 20.1886C63.5071 20.0649 63.521 19.9217 63.4825 19.7881C63.201 18.7983 62.1669 16.4961 58.6598 16.4961C56.0635 16.4961 53.8719 18.4821 53.8719 20.8333C53.8719 22.8541 55.1979 24.3467 57.4202 24.8306L59.3935 25.2607C60.5813 25.5105 61.2909 26.2347 61.2909 27.1961C61.2909 28.4231 60.2821 29.1852 58.6566 29.1852C56.7466 29.1852 55.8263 27.9329 55.6018 26.7596C55.5876 26.684 55.5575 26.6122 55.5134 26.5491C55.4694 26.486 55.4125 26.4329 55.3464 26.3934C55.2803 26.354 55.2066 26.329 55.1301 26.3202C55.0537 26.3113 54.9762 26.3188 54.9029 26.3422L53.7043 26.7249C53.5784 26.7632 53.471 26.8467 53.4027 26.9593C53.3344 27.0719 53.3101 27.2058 53.3343 27.3352C53.7075 29.2801 55.3055 31.3546 58.6788 31.3546C61.5294 31.3546 63.6792 29.4983 63.6792 27.0379C63.6792 24.9602 62.3079 23.4676 59.9159 22.9395L59.9257 22.9448ZM72.1708 24.8369C72.1771 24.878 72.1582 24.9096 72.1455 24.9223C72.1351 24.9352 72.1218 24.9457 72.1067 24.9528C72.0917 24.9599 72.0752 24.9635 72.0586 24.9634H67.6628C67.6453 24.9634 67.6281 24.9594 67.6123 24.9518C67.5966 24.9441 67.5828 24.9329 67.5721 24.9191C67.562 24.9076 67.5548 24.8938 67.551 24.879C67.5472 24.8642 67.5468 24.8487 67.5499 24.8337C67.7507 23.9173 68.5366 22.9932 69.8395 22.9932C71.1193 22.9932 71.9899 23.6795 72.1686 24.8315L72.1708 24.8369ZM69.8224 20.9408C67.5076 20.9408 65.1136 22.8762 65.1136 26.1177C65.1136 27.6799 65.6259 29.0144 66.5968 29.9726C67.4962 30.8613 68.7251 31.3514 70.0564 31.3514C72.0393 31.3514 73.6458 30.3154 74.3541 28.5812C74.4111 28.4389 74.4079 28.2808 74.3465 28.1416C74.3163 28.0741 74.2725 28.0135 74.2178 27.9637C74.1631 27.9139 74.0987 27.8758 74.0287 27.8519L73.061 27.5167C72.9315 27.4722 72.79 27.4782 72.6647 27.5335C72.5395 27.5888 72.4397 27.6893 72.3852 27.8149C71.9678 28.7984 71.1835 29.2949 70.0545 29.2949C68.6884 29.2949 67.648 28.3747 67.4677 27.0044C67.4654 26.9891 67.4667 26.9734 67.4713 26.9586C67.476 26.9438 67.4839 26.9303 67.4946 26.919C67.5072 26.9032 67.5357 26.8779 67.58 26.8779H73.9946C74.2823 26.8779 74.5227 26.6534 74.5385 26.3669C74.5448 26.2752 74.548 26.174 74.548 26.074C74.548 22.9053 72.7359 20.9374 69.8202 20.9374L69.8224 20.9408ZM80.7453 28.6318C79.2052 28.6318 78.247 27.5629 78.247 25.8425C78.247 24.1475 79.2274 23.0521 80.7453 23.0521C82.2158 23.0521 83.2038 24.1715 83.2038 25.8413C83.2038 27.5091 82.2152 28.6305 80.745 28.6305L80.7453 28.6318ZM84.8501 21.2318H83.6895C83.3891 21.2318 83.144 21.4762 83.144 21.7915C83.1439 21.8138 83.1373 21.8356 83.1249 21.8541C83.1125 21.8727 83.095 21.8872 83.0744 21.8959C83.0523 21.9054 83.008 21.918 82.9682 21.8801C82.3705 21.3336 81.5293 21.0563 80.4699 21.0563C77.8442 21.0563 75.9382 23.0707 75.9382 25.8441C75.9382 28.6055 77.8442 30.6099 80.4699 30.6099C81.4407 30.6099 82.3199 30.2911 82.946 29.7124C82.9872 29.6744 83.0314 29.6839 83.0536 29.6934C83.0694 29.6997 83.1231 29.7282 83.1231 29.7978V30.1962C83.1231 32.1253 82.2788 33.025 80.4699 33.025C79.3219 33.025 78.4207 32.3134 78.1772 31.2136C78.1455 31.0713 78.0601 30.9511 77.9368 30.8742C77.8135 30.7974 77.6648 30.773 77.5225 30.8047L76.3828 31.0671C76.2428 31.1004 76.1215 31.1874 76.045 31.3092C75.9685 31.431 75.9428 31.578 75.9736 31.7186C76.3815 33.7172 78.1892 35.0612 80.4674 35.0612C82.1656 35.0612 83.459 34.5442 84.3128 33.5243C85.018 32.6812 85.3912 31.5108 85.3912 30.1396V21.7855C85.3912 21.4851 85.1477 21.2416 84.8473 21.2416L84.8501 21.2318ZM98.6476 20.9585C97.3637 20.9585 96.3192 21.443 95.6263 22.3627C95.6146 22.3797 95.5987 22.3934 95.5801 22.4025C95.5616 22.4116 95.541 22.4157 95.5204 22.4145C95.5051 22.4147 95.49 22.4108 95.4767 22.4034C95.4633 22.3959 95.4522 22.385 95.4445 22.3718C94.8635 21.4737 93.8607 20.9582 92.6932 20.9582C91.7644 20.9582 90.8716 21.2846 90.243 21.8548C90.2278 21.8706 90.208 21.8813 90.1864 21.8853C90.1649 21.8892 90.1426 21.8863 90.1228 21.8769C90.1034 21.8689 90.0869 21.8552 90.0756 21.8375C90.0643 21.8199 90.0587 21.7992 90.0595 21.7782C90.0595 21.4778 89.8148 21.2343 89.5143 21.2343H88.4119C88.1115 21.2343 87.868 21.4778 87.868 21.7782V30.5159C87.868 30.8164 88.1128 31.0605 88.4132 31.0605H89.5738C89.8742 31.0605 90.1177 30.8151 90.1177 30.5147V25.1882C90.1177 23.8939 90.9083 23.0239 92.0879 23.0239C93.6311 23.0239 93.862 24.2342 93.862 24.9552V30.5242C93.862 30.8246 94.1055 31.0681 94.4059 31.0681H95.5864C95.8869 31.0681 96.1304 30.8233 96.1304 30.5229V25.1693C96.1304 23.9056 96.9336 23.0233 98.0816 23.0233C99.6258 23.0233 99.8557 24.2345 99.8557 24.9555V30.5245C99.8557 30.8249 100.099 31.0684 100.4 31.0684H101.56C101.861 31.0684 102.104 30.8236 102.104 30.5232V24.7582C102.104 22.1397 100.368 20.9687 98.6476 20.9687V20.9585ZM106.494 24.971C106.476 24.9709 106.459 24.967 106.443 24.9594C106.428 24.9519 106.414 24.9409 106.403 24.9274C106.393 24.9158 106.386 24.9023 106.383 24.8877C106.379 24.8731 106.379 24.8579 106.382 24.8432C106.583 23.9261 107.369 23.0027 108.673 23.0027C109.952 23.0027 110.823 23.689 111.002 24.8401C111.008 24.8812 110.988 24.9128 110.976 24.9255C110.965 24.9372 110.951 24.9466 110.937 24.9532C110.922 24.9597 110.906 24.9632 110.889 24.9634H106.494V24.971ZM108.653 20.9484C106.339 20.9484 103.945 22.8851 103.945 26.1253C103.945 27.6894 104.457 29.023 105.427 29.9821C106.325 30.8708 107.552 31.3578 108.886 31.3578C110.866 31.3578 112.472 30.3205 113.184 28.5843C113.241 28.442 113.238 28.2839 113.174 28.1448C113.111 28.0056 112.997 27.9044 112.855 27.8538L111.887 27.5192C111.619 27.4266 111.321 27.5572 111.211 27.8171C110.794 28.7981 110.009 29.2971 108.881 29.2971C107.514 29.2971 106.474 28.375 106.294 27.0044C106.291 26.9889 106.292 26.973 106.297 26.958C106.301 26.9429 106.309 26.9289 106.319 26.9171C106.332 26.9013 106.36 26.8776 106.404 26.8776H112.821C113.109 26.8776 113.348 26.6531 113.365 26.3662C113.37 26.2745 113.374 26.1733 113.374 26.0721C113.374 22.9034 111.562 20.9332 108.646 20.9332L108.653 20.9484ZM120.282 20.9684C119.3 20.9684 118.439 21.3029 117.793 21.936C117.778 21.951 117.759 21.9611 117.738 21.965C117.718 21.969 117.696 21.9666 117.677 21.9582C117.657 21.9495 117.64 21.9352 117.628 21.9169C117.617 21.8987 117.61 21.8774 117.611 21.8557V21.7861C117.611 21.4857 117.366 21.2422 117.065 21.2422H115.927C115.627 21.2422 115.382 21.4857 115.382 21.7861V30.5223C115.382 30.8227 115.625 31.0671 115.926 31.0671H117.105C117.406 31.0671 117.651 30.8221 117.651 30.5216V25.4216C117.651 24.2806 118.168 23.0612 119.621 23.0612C120.927 23.0612 121.59 23.7832 121.59 25.2069V30.5197C121.59 30.8202 121.833 31.0637 122.134 31.0637H123.313C123.614 31.0637 123.858 30.817 123.858 30.5166V24.8941C123.858 22.4718 122.486 20.9665 120.281 20.9665L120.282 20.9684ZM129.354 23.3345H130.73C131.03 23.3345 131.274 23.0894 131.274 22.7893V21.7855C131.274 21.4851 131.03 21.2416 130.73 21.2416H129.354C129.34 21.2416 129.325 21.2387 129.312 21.2332C129.298 21.2276 129.286 21.2194 129.276 21.2092C129.266 21.1989 129.257 21.1867 129.252 21.1733C129.246 21.1598 129.243 21.1454 129.243 21.1309V18.8179C129.243 18.5175 128.998 18.2734 128.698 18.2734H127.673C127.373 18.2734 127.129 18.5175 127.129 18.8179V20.0133C127.129 20.5731 126.915 21.2413 125.9 21.2413H125.725C125.425 21.2413 125.181 21.4848 125.181 21.7852V22.7877C125.181 23.0881 125.426 23.3316 125.725 23.3316H126.867C126.928 23.3316 126.977 23.379 126.977 23.4423V28.2713C126.977 30.0549 128.064 31.1617 129.811 31.1617C130.298 31.1617 130.677 31.0921 130.859 31.051C131.106 30.9941 131.279 30.7759 131.279 30.5197V29.5903C131.279 29.5138 131.263 29.4383 131.232 29.3685C131.2 29.2986 131.155 29.2362 131.098 29.1851C131.041 29.134 130.974 29.0955 130.901 29.072C130.829 29.0484 130.752 29.0405 130.676 29.0486C130.552 29.0612 130.433 29.0685 130.339 29.0685C129.545 29.0685 129.248 28.7776 129.248 27.9965V23.4426C129.248 23.3819 129.299 23.3326 129.359 23.3326" fill="#43AF79"/>
<path fill-rule="evenodd" clip-rule="evenodd" d="M30.7426 35.7237C29.508 35.7237 28.2886 35.5403 27.1185 35.1775C26.7981 35.0782 26.5302 34.8558 26.3738 34.559C26.2175 34.2622 26.1854 33.9155 26.2846 33.5951C26.4914 32.9246 27.2017 32.5515 27.8674 32.7602C28.7946 33.048 29.7616 33.1935 30.7426 33.1935C35.0349 33.1935 38.7618 30.439 40.017 26.3374C40.0655 26.1786 40.1449 26.0309 40.2506 25.9028C40.3564 25.7747 40.4863 25.6687 40.633 25.5908C40.7797 25.513 40.9403 25.4649 41.1057 25.4492C41.271 25.4335 41.4378 25.4505 41.5966 25.4994C42.2645 25.7017 42.6402 26.4101 42.4359 27.0774C40.8534 32.2482 36.1541 35.7237 30.7426 35.7237Z" fill="#43AF79"/>
<path fill-rule="evenodd" clip-rule="evenodd" d="M20.2593 21.5486C20.0614 21.5486 19.8663 21.5022 19.6897 21.4132C19.513 21.3241 19.3597 21.1948 19.2421 21.0358C19.1244 20.8767 19.0457 20.6923 19.0123 20.4973C18.9789 20.3023 18.9917 20.1021 19.0497 19.913C20.6324 14.7425 25.3317 11.2695 30.7426 11.2695C31.9782 11.2695 33.1976 11.453 34.3667 11.816C34.5254 11.8652 34.6728 11.9451 34.8006 12.0512C34.9284 12.1574 35.0341 12.2877 35.1115 12.4347C35.1889 12.5816 35.2367 12.7424 35.252 12.9078C35.2673 13.0733 35.2498 13.2401 35.2006 13.3988C35.1516 13.5575 35.0718 13.7051 34.9656 13.833C34.8595 13.9608 34.7292 14.0665 34.5822 14.1439C34.4352 14.2214 34.2743 14.2691 34.1088 14.2842C33.9434 14.2994 33.7765 14.2818 33.6179 14.2324C32.6913 13.9478 31.7236 13.8023 30.7426 13.8023C26.4512 13.8023 22.7237 16.5567 21.4686 20.6584C21.3892 20.9172 21.229 21.1438 21.0114 21.3049C20.7938 21.466 20.5303 21.553 20.2596 21.5533" fill="#43AF79"/>
<path fill-rule="evenodd" clip-rule="evenodd" d="M33.9923 27.9762H18.8362C18.1374 27.9762 17.5713 27.4102 17.5713 26.7113C17.5713 26.0124 18.1374 25.4463 18.8362 25.4463H33.9923C34.6912 25.4463 35.2573 26.0124 35.2573 26.7113C35.2573 27.4102 34.6912 27.9762 33.9923 27.9762Z" fill="#93C8A2"/>
<path fill-rule="evenodd" clip-rule="evenodd" d="M42.6491 21.5496H27.4936C26.7947 21.5496 26.2287 20.9835 26.2287 20.2846C26.2287 19.5857 26.7947 19.0197 27.4936 19.0197H42.6491C43.348 19.0197 43.914 19.5857 43.914 20.2846C43.914 20.9835 43.348 21.5496 42.6491 21.5496Z" fill="#93C8A2"/>
<path fill-rule="evenodd" clip-rule="evenodd" d="M39.5158 15.4642C39.5158 15.7997 39.3825 16.1214 39.1453 16.3586C38.908 16.5959 38.5863 16.7291 38.2508 16.7291C37.9153 16.7291 37.5936 16.5959 37.3563 16.3586C37.1191 16.1214 36.9859 15.7997 36.9859 15.4642C36.9859 15.1287 37.1191 14.8069 37.3563 14.5697C37.5936 14.3325 37.9153 14.1992 38.2508 14.1992C38.5863 14.1992 38.908 14.3325 39.1453 14.5697C39.3825 14.8069 39.5158 15.1287 39.5158 15.4642ZM24.4991 31.5336C24.4991 31.869 24.3659 32.1908 24.1286 32.428C23.8914 32.6652 23.5697 32.7985 23.2342 32.7985C22.8987 32.7985 22.577 32.6652 22.3397 32.428C22.1025 32.1908 21.9692 31.869 21.9692 31.5336C21.9692 31.1981 22.1025 30.8763 22.3397 30.6391C22.577 30.4019 22.8987 30.2686 23.2342 30.2686C23.5697 30.2686 23.8914 30.4019 24.1286 30.6391C24.3659 30.8763 24.4991 31.1981 24.4991 31.5336Z" fill="#93C8A2"/>
</g>
<defs>
<clipPath id="clip0_1647_108889">
<rect width="114" height="32" fill="white" transform="translate(17.5713 8.39062)"/>
</clipPath>
</defs>
</svg>
