<svg width="634" height="455" viewBox="0 0 634 455" fill="none" xmlns="http://www.w3.org/2000/svg">
<path d="M623.142 241.935L608.143 197.937L583.098 206.47L531.942 56.3672L474.91 75.798L475.081 76.3086L456.686 155.712L430.514 268.672L445.782 302.383L499.634 284.032L519.238 277.349L541.062 269.909L558.879 322.202L615.912 302.771L598.093 250.478L623.142 241.935ZM519.44 228.167L506.503 232.576L481.727 241.02L498.637 157.058L500.228 150.091L526.063 225.907L519.44 228.167Z" fill="#F8444F"/>
<path opacity="0.25" d="M598.093 250.476L615.912 302.769L579.585 287.231L521.526 78.0393L500.227 150.093L490.365 190.903L456.688 155.709L475.083 76.3069L474.911 75.7964L531.941 56.3672L583.096 206.472L608.141 197.937L623.142 241.935L598.093 250.476Z" fill="#010101"/>
<path opacity="0.25" d="M519.237 277.345L499.633 284.028L502.513 243.628V236.263L506.502 232.573L509.068 230.203L519.437 228.164C519.439 228.164 518.796 257.839 519.237 277.345Z" fill="#010101"/>
<path d="M519.445 228.163C519.445 228.163 514.545 222.01 505.991 222.721C497.437 223.432 492.664 226.641 492.377 235.551C492.09 244.462 494.215 289.367 492.263 307.188C490.31 325.009 502.46 326.79 503.156 313.603C503.854 300.417 498.691 259.074 502.518 252.303C506.348 245.532 504.017 259.787 508.033 264.421C512.051 269.054 516.326 260.857 512.051 249.809C507.772 238.759 519.445 228.163 519.445 228.163Z" fill="url(#paint0_linear_1647_108823)"/>
<path opacity="0.25" d="M36.7903 179.956C36.7903 179.956 7.92294 174.536 2.22027 177.157C-3.4824 179.777 12.6534 225.397 12.6534 225.397" stroke="white" stroke-width="0.749862" stroke-miterlimit="10"/>
<path d="M407.597 249.215L399.002 205.323C392.644 172.859 380.382 149.177 362.219 134.266C344.047 119.365 321.604 114.529 294.883 119.763C268.162 124.998 249.213 137.881 238.045 158.405C226.872 178.938 224.472 205.492 230.853 238.071L239.478 282.129C245.815 314.481 258.062 338.11 276.232 353.011C283.903 359.303 292.348 363.802 301.564 366.497C314.17 370.194 328.225 370.516 343.724 367.485C351.756 365.917 359.092 363.645 365.713 360.675C381.04 353.806 392.603 343.21 400.403 328.871C411.579 308.339 413.972 281.784 407.597 249.215ZM353.947 308.129C351.008 317.13 344.791 322.559 335.296 324.418C325.465 326.345 317.477 323.585 311.314 316.132C307.114 311.054 303.522 303.518 300.543 293.522C300.543 293.513 300.543 293.505 300.543 293.505C300.537 293.491 300.537 293.474 300.528 293.453C299.148 288.819 297.904 283.651 296.793 277.96L284.729 216.34C281.902 200.155 281.894 187.662 284.698 178.857C287.503 170.055 293.712 164.706 303.318 162.832C310.645 161.391 316.966 162.63 322.276 166.53H322.284C324.091 167.864 325.784 169.498 327.36 171.449C333.562 179.121 338.361 191.631 341.75 208.96L353.427 268.587C356.715 285.946 356.888 299.122 353.947 308.129Z" fill="#F8444F"/>
<path opacity="0.25" d="M358.26 316.363C360.736 320.173 364.026 346.075 365.715 360.676C359.092 363.646 351.756 365.918 343.726 367.486C328.226 370.515 314.172 370.194 301.566 366.497C302.082 365.334 302.555 364.119 302.959 362.875C310.826 338.839 300.995 295.472 300.545 293.521C303.522 303.517 307.114 311.053 311.316 316.131C317.478 323.584 325.466 326.344 335.298 324.417C344.791 322.556 351.009 317.128 353.949 308.128C356.89 299.122 356.715 285.946 353.432 268.585L341.756 208.958C338.366 191.628 333.565 179.119 327.365 171.447C325.789 169.498 324.096 167.863 322.289 166.527C341.255 170.246 356.658 228.966 363.077 257.292C369.488 285.623 370.027 298.724 358.26 316.363Z" fill="#010101"/>
<path d="M304.73 305.045C304.73 305.045 305.96 308.26 312.42 310.041C318.881 311.822 324.939 301.83 329.216 305.045C333.493 308.26 340.338 321.585 346.36 319.556C352.383 317.527 354.164 349.602 351.314 353.167C348.463 356.731 346.412 327.924 338.884 328.785C331.355 329.643 337.058 351.384 332.781 355.305C328.504 359.226 330.286 345.683 325.654 343.187C321.02 340.693 330.644 452.245 323.514 454.027C316.385 455.81 311.753 449.037 314.604 425.159C317.455 401.282 313.89 318.952 309.613 314.675C305.339 310.398 305.606 309.596 304.73 305.045Z" fill="#F8444F"/>
<path d="M206.735 74.8754L149.036 64.9609L148.947 65.478L21.5257 208.939L18.8945 244.8L37.1705 247.942L68.8027 253.379L111.263 260.677L115.298 261.367L112.261 279.057L110.852 287.241L106.209 314.275L143.764 320.731L163.91 324.189L172.997 271.281L198.344 275.63L205.993 231.107L180.646 226.758L206.735 74.8754ZM134.706 148.39L122.939 216.843L108.863 214.421L78.0777 209.136L95.1237 188.79L99.0239 184.133L131.526 145.34L136.122 140.136L134.706 148.39Z" fill="#F8444F"/>
<path opacity="0.25" d="M111.263 260.675L68.8027 253.377C73.804 236.857 80.045 214.088 78.0794 209.133L108.865 214.418C110.837 217.705 112.397 222.225 112.817 228.428C113.566 239.408 111.93 250.619 111.263 260.675Z" fill="#010101"/>
<path d="M79.9163 209.454C79.9163 209.454 84.5457 203.03 94.9706 205.037C105.396 207.043 106.198 219.874 101.654 234.041C97.1092 248.208 96.0407 297.658 98.1776 313.696C100.318 329.733 98.9801 337.219 93.9022 337.752C88.8243 338.288 86.4166 318.506 89.3577 304.608C92.2987 290.709 92.0312 277.878 87.2192 280.016C82.4072 282.156 86.4166 287.502 84.0106 292.312C81.6046 297.123 74.3882 294.183 74.6557 285.094C74.9232 276.005 89.4556 216.941 79.9163 209.454Z" fill="#F8444F"/>
<path opacity="0.25" d="M180.645 226.757L205.992 231.106L198.344 275.63L172.996 271.281L163.907 324.189L143.764 320.729L179.169 99.8176L206.734 74.875L180.645 226.757Z" fill="#010101"/>
<path d="M260.427 20.85C266.185 20.85 270.852 16.1831 270.852 10.425C270.852 4.66684 266.185 0 260.427 0C254.669 0 250.002 4.66684 250.002 10.425C250.002 16.1831 254.669 20.85 260.427 20.85Z" fill="#F47920"/>
<path d="M623.142 153.33C628.9 153.33 633.567 148.664 633.567 142.905C633.567 137.147 628.9 132.48 623.142 132.48C617.384 132.48 612.717 137.147 612.717 142.905C612.717 148.664 617.384 153.33 623.142 153.33Z" fill="#F8444F"/>
<path d="M78.0793 77.2171C83.8374 77.2171 88.5043 72.5503 88.5043 66.7922C88.5043 61.0341 83.8374 56.3672 78.0793 56.3672C72.3211 56.3672 67.6543 61.0341 67.6543 66.7922C67.6543 72.5503 72.3211 77.2171 78.0793 77.2171Z" fill="#F8444F"/>
<path d="M250.005 396.022C255.763 396.022 260.43 391.355 260.43 385.597C260.43 379.839 255.763 375.172 250.005 375.172C244.247 375.172 239.58 379.839 239.58 385.597C239.58 391.355 244.247 396.022 250.005 396.022Z" fill="#F8444F"/>
<path d="M256.41 108.436C258.63 108.436 260.43 106.635 260.43 104.415C260.43 102.195 258.63 100.395 256.41 100.395C254.19 100.395 252.389 102.195 252.389 104.415C252.389 106.635 254.19 108.436 256.41 108.436Z" fill="#F8444F"/>
<path d="M136.124 53.9949C138.344 53.9949 140.145 52.1941 140.145 49.974C140.145 47.754 138.344 45.9531 136.124 45.9531C133.904 45.9531 132.104 47.754 132.104 49.974C132.104 52.1941 133.904 53.9949 136.124 53.9949Z" fill="#F8444F"/>
<defs>
<linearGradient id="paint0_linear_1647_108823" x1="500.334" y1="183.326" x2="513.163" y2="388.609" gradientUnits="userSpaceOnUse">
<stop stop-color="#FCAF17"/>
<stop offset="1" stop-color="#F47920"/>
</linearGradient>
</defs>
</svg>
