<svg width="40" height="40" viewBox="0 0 40 40" fill="none" xmlns="http://www.w3.org/2000/svg">
<path fill-rule="evenodd" clip-rule="evenodd" d="M23.9271 3.34525C23.5553 3.29195 23.1818 3.40188 22.8847 3.63838C22.5793 3.87821 22.3884 4.22464 22.3469 4.61271C22.2589 5.39717 22.8249 6.10668 23.6084 6.19496C29.0111 6.79788 33.2105 11.0067 33.818 16.4263C33.8994 17.1524 34.5085 17.7004 35.2355 17.7004C35.2903 17.7004 35.3434 17.6971 35.3982 17.6904C35.7783 17.6488 36.1169 17.4606 36.3559 17.1608C36.5933 16.861 36.7012 16.4879 36.658 16.1065C35.9011 9.34446 30.6677 4.0964 23.9271 3.34525ZM24.0317 9.14859C23.2383 9.00203 22.5097 9.50835 22.3586 10.2828C22.2076 11.0573 22.7155 11.8134 23.4873 11.965C25.8111 12.418 27.6054 14.2168 28.0602 16.5485V16.5502C28.1896 17.2214 28.7805 17.7094 29.4611 17.7094C29.5524 17.7094 29.6436 17.7011 29.7366 17.6844C30.5084 17.5295 31.0163 16.775 30.8653 15.9989C30.1864 12.5163 27.5058 9.82646 24.0317 9.14859ZM26.6674 25.1496C27.4199 24.7157 28.2697 24.2257 29.3418 24.4538C30.3128 24.6586 33.6225 27.3451 34.5288 28.2761C35.123 28.8857 35.4533 29.5153 35.5048 30.1448C35.5944 32.6148 32.2382 35.4345 31.6274 35.786C30.8157 36.3706 29.8713 36.6654 28.8106 36.6654C27.7268 36.6654 26.5184 36.3572 25.2005 35.7427C18.0499 32.758 7.12653 22.0504 4.23842 14.9553C3.04002 12.3138 3.03172 10.1353 4.2185 8.49804C4.69155 7.73024 7.38879 4.52077 9.80385 4.62237C10.4462 4.67733 11.0703 5.00711 11.6828 5.60669C12.609 6.5144 15.2282 9.83379 15.4307 10.8081C15.6548 11.8907 15.1635 12.7518 14.7269 13.5079C14.6338 13.6705 14.5084 13.8634 14.3709 14.0747C13.8493 14.8768 13.1551 15.9443 13.4007 16.6258C15.1618 20.9495 19.2301 24.7219 23.5556 26.494C24.2245 26.7371 25.2914 26.0379 26.0909 25.514C26.2992 25.3775 26.4893 25.2529 26.6495 25.1599L26.6674 25.1496Z" fill="#456170"/>
</svg>
