<svg width="19" height="20" viewBox="0 0 19 20" fill="none" xmlns="http://www.w3.org/2000/svg">
<path d="M13.2812 3.23438H5.46875C3.125 3.23438 1.5625 4.40625 1.5625 7.14062V12.6094C1.5625 15.3438 3.125 16.5156 5.46875 16.5156H13.2812C15.625 16.5156 17.1875 15.3438 17.1875 12.6094V7.14062C17.1875 4.40625 15.625 3.23438 13.2812 3.23438ZM13.6484 7.99219L11.2031 9.94531C10.6875 10.3594 10.0312 10.5625 9.375 10.5625C8.71875 10.5625 8.05469 10.3594 7.54687 9.94531L5.10156 7.99219C4.85156 7.78906 4.8125 7.41406 5.00781 7.16406C5.21094 6.91406 5.57812 6.86719 5.82812 7.07031L8.27344 9.02344C8.86719 9.5 9.875 9.5 10.4687 9.02344L12.9141 7.07031C13.1641 6.86719 13.5391 6.90625 13.7344 7.16406C13.9375 7.41406 13.8984 7.78906 13.6484 7.99219Z" fill="#012C3D"/>
</svg>
