<svg width="20" height="20" viewBox="0 0 20 20" fill="none" xmlns="http://www.w3.org/2000/svg">
<path d="M18.1252 9.99862C18.1212 11.9837 17.3927 13.899 16.0764 15.385C14.7602 16.8709 12.9468 17.8253 10.9768 18.0689C10.9328 18.0733 10.8884 18.0684 10.8464 18.0548C10.8044 18.0411 10.7657 18.0189 10.7326 17.9896C10.6996 17.9602 10.673 17.9244 10.6545 17.8842C10.6361 17.8441 10.6261 17.8006 10.6252 17.7564V11.8736H12.5002C12.5857 11.8738 12.6703 11.8564 12.7488 11.8226C12.8272 11.7888 12.898 11.7392 12.9565 11.677C13.0151 11.6147 13.0603 11.5411 13.0893 11.4608C13.1183 11.3804 13.1305 11.2949 13.1252 11.2096C13.1114 11.0479 13.0368 10.8976 12.9164 10.7889C12.7961 10.6801 12.6389 10.6211 12.4768 10.6236H10.6252V8.74862C10.6252 8.4171 10.7569 8.09916 10.9913 7.86474C11.2257 7.63032 11.5437 7.49862 11.8752 7.49862H13.1252C13.2107 7.49879 13.2953 7.48143 13.3738 7.4476C13.4522 7.41378 13.523 7.36422 13.5815 7.30198C13.6401 7.23974 13.6853 7.16615 13.7143 7.08575C13.7433 7.00536 13.7555 6.91986 13.7502 6.83456C13.7364 6.67295 13.6618 6.5226 13.5414 6.41385C13.4211 6.3051 13.2639 6.24606 13.1018 6.24862H11.8752C11.2122 6.24862 10.5763 6.51202 10.1074 6.98086C9.63859 7.4497 9.3752 8.08558 9.3752 8.74862V10.6236H7.5002C7.41473 10.6235 7.33013 10.6408 7.25164 10.6746C7.17315 10.7085 7.10243 10.758 7.04385 10.8203C6.98527 10.8825 6.94009 10.9561 6.91108 11.0365C6.88207 11.1169 6.86986 11.2024 6.8752 11.2877C6.88903 11.4493 6.96364 11.5996 7.08399 11.7084C7.20434 11.8171 7.36146 11.8762 7.52364 11.8736H9.3752V17.7564C9.37542 17.8002 9.36643 17.8436 9.34881 17.8837C9.33118 17.9238 9.30533 17.9598 9.27291 17.9892C9.2405 18.0187 9.20225 18.041 9.16065 18.0548C9.11906 18.0685 9.07504 18.0733 9.03145 18.0689C4.90645 17.5689 1.71895 13.983 1.88301 9.69394C1.97511 7.5758 2.89149 5.57756 4.43655 4.12574C5.98162 2.67392 8.03297 1.88354 10.1527 1.92331C12.2725 1.96307 14.2928 2.82983 15.7823 4.33857C17.2718 5.84732 18.1126 7.87852 18.1252 9.99862Z" fill="white"/>
</svg>
