<svg width="20" height="21" viewBox="0 0 20 21" fill="none" xmlns="http://www.w3.org/2000/svg">
<path d="M14.6837 9.45964C14.3253 9.45964 14.042 9.16797 14.042 8.81797C14.042 8.50964 13.7337 7.86797 13.217 7.30964C12.7087 6.76797 12.1503 6.4513 11.6837 6.4513C11.3253 6.4513 11.042 6.15964 11.042 5.80964C11.042 5.45964 11.3337 5.16797 11.6837 5.16797C12.517 5.16797 13.392 5.61797 14.1587 6.4263C14.8753 7.18464 15.3337 8.1263 15.3337 8.80964C15.3337 9.16797 15.042 9.45964 14.6837 9.45964Z" fill="white"/>
<path d="M17.6915 9.45964C17.3331 9.45964 17.0498 9.16797 17.0498 8.81797C17.0498 5.85963 14.6415 3.45964 11.6915 3.45964C11.3331 3.45964 11.0498 3.16797 11.0498 2.81797C11.0498 2.46797 11.3331 2.16797 11.6831 2.16797C15.3498 2.16797 18.3331 5.1513 18.3331 8.81797C18.3331 9.16797 18.0415 9.45964 17.6915 9.45964Z" fill="white"/>
<path d="M9.20866 12.9596L7.66699 14.5013C7.34199 14.8263 6.82533 14.8263 6.49199 14.5096C6.40033 14.418 6.30866 14.3346 6.21699 14.243C5.35866 13.3763 4.58366 12.468 3.89199 11.518C3.20866 10.568 2.65866 9.61797 2.25866 8.6763C1.86699 7.7263 1.66699 6.81797 1.66699 5.9513C1.66699 5.38464 1.76699 4.84297 1.96699 4.34297C2.16699 3.83464 2.48366 3.36797 2.92533 2.9513C3.45866 2.4263 4.04199 2.16797 4.65866 2.16797C4.89199 2.16797 5.12533 2.21797 5.33366 2.31797C5.55033 2.41797 5.74199 2.56797 5.89199 2.78464L7.82533 5.50964C7.97533 5.71797 8.08366 5.90964 8.15866 6.09297C8.23366 6.26797 8.27533 6.44297 8.27533 6.6013C8.27533 6.8013 8.21699 7.0013 8.10033 7.19297C7.99199 7.38464 7.83366 7.58464 7.63366 7.78464L7.00033 8.44297C6.90866 8.53464 6.86699 8.64297 6.86699 8.7763C6.86699 8.84297 6.87533 8.9013 6.89199 8.96797C6.91699 9.03464 6.94199 9.08463 6.95866 9.13463C7.10866 9.40963 7.36699 9.76797 7.73366 10.2013C8.10866 10.6346 8.50866 11.0763 8.94199 11.518C9.02532 11.6013 9.11699 11.6846 9.20033 11.768C9.53366 12.093 9.54199 12.6263 9.20866 12.9596Z" fill="white"/>
<path d="M18.3083 15.7742C18.3083 16.0076 18.2667 16.2492 18.1833 16.4826C18.1583 16.5492 18.1333 16.6159 18.1 16.6826C17.9583 16.9826 17.775 17.2659 17.5333 17.5326C17.125 17.9826 16.675 18.3076 16.1667 18.5159C16.1583 18.5159 16.15 18.5242 16.1417 18.5242C15.65 18.7242 15.1167 18.8326 14.5417 18.8326C13.6917 18.8326 12.7833 18.6326 11.825 18.2242C10.8667 17.8159 9.90833 17.2659 8.95833 16.5742C8.63333 16.3326 8.30833 16.0909 8 15.8326L10.725 13.1076C10.9583 13.2826 11.1667 13.4159 11.3417 13.5076C11.3833 13.5242 11.4333 13.5492 11.4917 13.5742C11.5583 13.5992 11.625 13.6076 11.7 13.6076C11.8417 13.6076 11.95 13.5576 12.0417 13.4659L12.675 12.8409C12.8833 12.6326 13.0833 12.4742 13.275 12.3742C13.4667 12.2576 13.6583 12.1992 13.8667 12.1992C14.025 12.1992 14.1917 12.2326 14.375 12.3076C14.5583 12.3826 14.75 12.4909 14.9583 12.6326L17.7167 14.5909C17.9333 14.7409 18.0833 14.9159 18.175 15.1242C18.2583 15.3326 18.3083 15.5409 18.3083 15.7742Z" fill="white"/>
</svg>
