<svg width="19" height="19" viewBox="0 0 19 19" fill="none" xmlns="http://www.w3.org/2000/svg">
<path d="M13.7656 8.58594C13.4297 8.58594 13.1641 8.3125 13.1641 7.98438C13.1641 7.69531 12.875 7.09375 12.3906 6.57031C11.9141 6.0625 11.3906 5.76563 10.9531 5.76563C10.6172 5.76563 10.3516 5.49219 10.3516 5.16406C10.3516 4.83594 10.625 4.5625 10.9531 4.5625C11.7344 4.5625 12.5547 4.98438 13.2734 5.74219C13.9453 6.45313 14.375 7.33594 14.375 7.97656C14.375 8.3125 14.1016 8.58594 13.7656 8.58594Z" fill="#012C3D"/>
<path d="M16.5859 8.58594C16.25 8.58594 15.9844 8.3125 15.9844 7.98437C15.9844 5.21094 13.7266 2.96094 10.9609 2.96094C10.625 2.96094 10.3594 2.6875 10.3594 2.35938C10.3594 2.03125 10.625 1.75 10.9531 1.75C14.3906 1.75 17.1875 4.54687 17.1875 7.98437C17.1875 8.3125 16.9141 8.58594 16.5859 8.58594Z" fill="#012C3D"/>
<path d="M8.63281 11.8672L7.1875 13.3125C6.88281 13.6172 6.39844 13.6172 6.08594 13.3203C6 13.2344 5.91406 13.1562 5.82812 13.0703C5.02344 12.2578 4.29688 11.4062 3.64844 10.5156C3.00781 9.625 2.49219 8.73438 2.11719 7.85156C1.75 6.96094 1.5625 6.10938 1.5625 5.29688C1.5625 4.76562 1.65625 4.25781 1.84375 3.78906C2.03125 3.3125 2.32812 2.875 2.74219 2.48438C3.24219 1.99219 3.78906 1.75 4.36719 1.75C4.58594 1.75 4.80469 1.79688 5 1.89063C5.20312 1.98438 5.38281 2.125 5.52344 2.32812L7.33594 4.88281C7.47656 5.07813 7.57812 5.25781 7.64844 5.42969C7.71875 5.59375 7.75781 5.75781 7.75781 5.90625C7.75781 6.09375 7.70312 6.28125 7.59375 6.46094C7.49219 6.64062 7.34375 6.82812 7.15625 7.01562L6.5625 7.63281C6.47656 7.71875 6.4375 7.82031 6.4375 7.94531C6.4375 8.00781 6.44531 8.0625 6.46094 8.125C6.48438 8.1875 6.50781 8.23437 6.52344 8.28125C6.66406 8.53906 6.90625 8.875 7.25 9.28125C7.60156 9.6875 7.97656 10.1016 8.38281 10.5156C8.46094 10.5938 8.54688 10.6719 8.625 10.75C8.9375 11.0547 8.94531 11.5547 8.63281 11.8672Z" fill="#012C3D"/>
<path d="M17.1641 14.5078C17.1641 14.7266 17.125 14.9531 17.0469 15.1719C17.0234 15.2344 17 15.2969 16.9687 15.3594C16.8359 15.6406 16.6641 15.9063 16.4375 16.1563C16.0547 16.5781 15.6328 16.8828 15.1562 17.0781C15.1484 17.0781 15.1406 17.0859 15.1328 17.0859C14.6719 17.2734 14.1719 17.375 13.6328 17.375C12.8359 17.375 11.9844 17.1875 11.0859 16.8047C10.1875 16.4219 9.28906 15.9063 8.39844 15.2578C8.09375 15.0313 7.78906 14.8047 7.5 14.5625L10.0547 12.0078C10.2734 12.1719 10.4687 12.2969 10.6328 12.3828C10.6719 12.3984 10.7187 12.4219 10.7734 12.4453C10.8359 12.4687 10.8984 12.4766 10.9687 12.4766C11.1016 12.4766 11.2031 12.4297 11.2891 12.3438L11.8828 11.7578C12.0781 11.5625 12.2656 11.4141 12.4453 11.3203C12.625 11.2109 12.8047 11.1562 13 11.1562C13.1484 11.1562 13.3047 11.1875 13.4766 11.2578C13.6484 11.3281 13.8281 11.4297 14.0234 11.5625L16.6094 13.3984C16.8125 13.5391 16.9531 13.7031 17.0391 13.8984C17.1172 14.0937 17.1641 14.2891 17.1641 14.5078Z" fill="#012C3D"/>
</svg>
