<svg width="40" height="40" viewBox="0 0 40 40" fill="none" xmlns="http://www.w3.org/2000/svg">
<path fill-rule="evenodd" clip-rule="evenodd" d="M20.3972 29.8079C22.4387 28.7876 31.6673 23.694 31.6673 14.9987C31.6673 8.55538 26.444 3.33203 20.0007 3.33203C13.5573 3.33203 8.33398 8.55538 8.33398 14.9987C8.33398 23.694 17.5626 28.7876 19.6041 29.8079C19.8589 29.9353 20.1424 29.9353 20.3972 29.8079ZM20 19.9987C22.7614 19.9987 25 17.7601 25 14.9987C25 12.2373 22.7614 9.9987 20 9.9987C17.2386 9.9987 15 12.2373 15 14.9987C15 17.7601 17.2386 19.9987 20 19.9987Z" fill="#456170"/>
<path d="M30.1043 27.5C31.1282 28.2601 31.6673 29.1223 31.6673 30C31.6673 30.8777 31.1282 31.7399 30.1043 32.5C29.0803 33.2601 27.6075 33.8913 25.834 34.3301C24.0604 34.769 22.0486 35 20.0007 35C17.9527 35 15.9409 34.769 14.1673 34.3301C12.3938 33.8913 10.921 33.2601 9.89702 32.5C8.87306 31.7399 8.33398 30.8777 8.33398 30C8.33398 29.1223 8.87306 28.2601 9.89702 27.5" stroke="#456170" stroke-width="2" stroke-linecap="round"/>
</svg>
