<svg width="18" height="18" viewBox="0 0 18 18" fill="none" xmlns="http://www.w3.org/2000/svg">
<path d="M16.2446 16.875C16.1446 16.8764 16.0459 16.851 15.9589 16.8016C15.8719 16.7522 15.7997 16.6804 15.7496 16.5937C15.0005 15.3175 13.9327 14.2577 12.6508 13.5181C11.369 12.7786 9.917 12.3847 8.43715 12.375V15.75C8.43659 15.861 8.40318 15.9694 8.34111 16.0615C8.27905 16.1536 8.19112 16.2253 8.0884 16.2675C7.98596 16.3105 7.87306 16.3223 7.76394 16.3013C7.65482 16.2803 7.55437 16.2274 7.47527 16.1493L0.72527 9.39935C0.672548 9.34706 0.630701 9.28484 0.602144 9.2163C0.573586 9.14775 0.558884 9.07423 0.558884 8.99997C0.558884 8.92572 0.573586 8.85219 0.602144 8.78365C0.630701 8.7151 0.672548 8.65289 0.72527 8.6006L7.47527 1.8506C7.55437 1.77255 7.65482 1.71967 7.76394 1.69865C7.87306 1.67763 7.98596 1.6894 8.0884 1.73247C8.19112 1.77467 8.27905 1.84633 8.34111 1.93843C8.40318 2.03052 8.43659 2.13892 8.43715 2.24997V5.68685C10.7643 5.98576 12.9034 7.12063 14.4558 8.87997C16.0081 10.6393 16.8678 12.9031 16.8746 15.2493C16.8733 15.6255 16.8489 16.0012 16.8015 16.3743C16.7875 16.4914 16.737 16.601 16.6573 16.6878C16.5775 16.7746 16.4726 16.8342 16.3571 16.8581L16.2446 16.875ZM8.1559 11.25C9.5905 11.2294 11.0125 11.5205 12.3236 12.1032C13.6347 12.6859 14.8036 13.5463 15.7496 14.625C15.5804 12.5844 14.6897 10.671 13.2372 9.22777C11.7847 7.78459 9.8656 6.90613 7.82402 6.74997C7.68378 6.7373 7.55339 6.67249 7.45861 6.56834C7.36384 6.46419 7.31157 6.32829 7.31215 6.18747V3.6056L1.91777 8.99997L7.31215 14.3943V11.8125C7.31215 11.6633 7.37141 11.5202 7.4769 11.4147C7.58239 11.3092 7.72546 11.25 7.87465 11.25H8.1784H8.1559Z" fill="#012C3D"/>
</svg>
