<svg width="48" height="48" viewBox="0 0 48 48" fill="none" xmlns="http://www.w3.org/2000/svg">
<path d="M17.6437 34.6117C15.5062 40.968 7.03125 40.968 7.03125 40.968C7.03125 40.968 7.03125 32.493 13.3875 30.3555" stroke="white" stroke-width="2.5" stroke-linecap="round" stroke-linejoin="round"/>
<path d="M36.7318 19.7615L24.0006 32.4928L15.5068 23.999L28.2381 11.2678C33.0568 6.44905 37.8756 6.5053 39.9381 6.8053C40.2563 6.84776 40.5518 6.99377 40.7788 7.22081C41.0059 7.44784 41.1519 7.74329 41.1943 8.06155C41.4943 10.124 41.5506 14.9428 36.7318 19.7615Z" stroke="white" stroke-width="2.5" stroke-linecap="round" stroke-linejoin="round"/>
<path d="M34.6125 21.8828V33.9953C34.6069 34.391 34.4451 34.7684 34.1625 35.0453L28.1062 41.1203C27.9141 41.3122 27.6735 41.4484 27.41 41.5143C27.1466 41.5801 26.8702 41.5732 26.6103 41.4943C26.3505 41.4154 26.1169 41.2674 25.9346 41.0662C25.7522 40.8649 25.628 40.6179 25.575 40.3516L24 32.4953" stroke="white" stroke-width="2.5" stroke-linecap="round" stroke-linejoin="round"/>
<path d="M26.1186 13.3867H14.0061C13.6105 13.3924 13.2331 13.5541 12.9561 13.8367L6.88111 19.893C6.68919 20.0851 6.55304 20.3257 6.48717 20.5892C6.4213 20.8527 6.4282 21.1291 6.50711 21.3889C6.58603 21.6488 6.73401 21.8823 6.93527 22.0646C7.13653 22.247 7.38351 22.3713 7.64986 22.4242L15.5061 23.9992" stroke="white" stroke-width="2.5" stroke-linecap="round" stroke-linejoin="round"/>
</svg>
