<svg width="32" height="33" viewBox="0 0 32 33" fill="none" xmlns="http://www.w3.org/2000/svg">
<path d="M15.3062 5.16432C15.3626 5.02676 15.4586 4.90908 15.5821 4.82626C15.7056 4.74344 15.8509 4.69922 15.9995 4.69922C16.1482 4.69922 16.2935 4.74344 16.417 4.82626C16.5405 4.90908 16.6365 5.02676 16.6929 5.16432L19.5262 11.979C19.5793 12.1065 19.6664 12.2169 19.7782 12.2981C19.8899 12.3792 20.0219 12.428 20.1595 12.439L27.5169 13.0283C28.1822 13.0817 28.4515 13.9123 27.9449 14.3457L22.3396 19.1483C22.2348 19.2379 22.1568 19.3546 22.114 19.4856C22.0712 19.6166 22.0653 19.7568 22.0969 19.891L23.8102 27.071C23.8447 27.215 23.8356 27.3661 23.7843 27.505C23.7329 27.6439 23.6416 27.7645 23.5217 27.8515C23.4019 27.9386 23.2589 27.9881 23.1109 27.994C22.9629 27.9998 22.8165 27.9616 22.6902 27.8843L16.3902 24.0377C16.2725 23.9659 16.1374 23.928 15.9995 23.928C15.8617 23.928 15.7266 23.9659 15.6089 24.0377L9.30888 27.8857C9.18256 27.963 9.03615 28.0011 8.88816 27.9953C8.74016 27.9895 8.59722 27.9399 8.47737 27.8529C8.35753 27.7658 8.26617 27.6452 8.21482 27.5063C8.16347 27.3674 8.15445 27.2164 8.18888 27.0723L9.90222 19.891C9.93399 19.7568 9.92815 19.6166 9.88534 19.4855C9.84252 19.3545 9.7644 19.2378 9.65955 19.1483L4.05422 14.3457C3.94197 14.2491 3.86076 14.1216 3.82082 13.979C3.78087 13.8365 3.78396 13.6853 3.8297 13.5445C3.87545 13.4037 3.9618 13.2796 4.0779 13.1877C4.19401 13.0959 4.33467 13.0404 4.48222 13.0283L11.8396 12.439C11.9772 12.428 12.1092 12.3792 12.2209 12.2981C12.3327 12.2169 12.4198 12.1065 12.4729 11.979L15.3062 5.16432Z" fill="#F8444F" stroke="#F8444F" stroke-width="2" stroke-linecap="round" stroke-linejoin="round"/>
</svg>
