<svg width="49" height="48" viewBox="0 0 49 48" fill="none" xmlns="http://www.w3.org/2000/svg">
<path d="M32.1494 35.3828L32.8807 39.8078" stroke="white" stroke-width="2.5" stroke-linecap="round" stroke-linejoin="round"/>
<path d="M24.5 36V42" stroke="white" stroke-width="2.5" stroke-linecap="round" stroke-linejoin="round"/>
<path d="M16.8494 35.3828L16.1182 39.8078" stroke="white" stroke-width="2.5" stroke-linecap="round" stroke-linejoin="round"/>
<path d="M33.6875 12.8984C40.6812 14.3609 45.5 17.4359 45.5 20.9984C45.5 25.9672 36.1063 29.9984 24.5 29.9984C12.8937 29.9984 3.5 25.9672 3.5 20.9984C3.5 17.4359 8.35625 14.3422 15.3875 12.8984" stroke="white" stroke-width="2.5" stroke-linecap="round" stroke-linejoin="round"/>
<path d="M14 18.7321C13.997 19.4093 14.2261 20.0671 14.6492 20.5959C15.0722 21.1247 15.6637 21.4926 16.325 21.6383C19.008 22.238 21.751 22.5274 24.5 22.5008C27.2491 22.5274 29.9921 22.238 32.675 21.6383C33.3364 21.4926 33.9278 21.1247 34.3509 20.5959C34.7739 20.0671 35.003 19.4093 35 18.7321V18.0008C35.0001 16.6108 34.7243 15.2346 34.1884 13.9521C33.6525 12.6695 32.8674 11.5062 31.8784 10.5294C30.8894 9.55266 29.7164 8.78199 28.4273 8.2621C27.1382 7.74221 25.7587 7.48345 24.3688 7.50082C18.5938 7.57582 14 12.3946 14 18.1508V18.7321Z" stroke="white" stroke-width="2.5" stroke-linecap="round" stroke-linejoin="round"/>
</svg>
