<svg width="133" height="32" viewBox="0 0 133 32" fill="none" xmlns="http://www.w3.org/2000/svg">
<path d="M19.9905 0.800781H8.34577C8.06354 0.800781 7.79287 0.912895 7.59331 1.11246L1.81659 6.88918C1.14622 7.55955 1.62101 8.70577 2.56905 8.70577H10.7173C11.305 8.70577 11.7815 9.1822 11.7815 9.7699V30.4665C11.7815 31.379 12.8547 31.8683 13.5435 31.2698L20.6884 25.0619C20.9211 24.8598 21.0546 24.5668 21.0546 24.2587V1.86491C21.0546 1.27721 20.5782 0.800781 19.9905 0.800781Z" fill="white"/>
<path d="M19.9905 0.800781H8.34577C8.06354 0.800781 7.79287 0.912895 7.59331 1.11246L1.81659 6.88918C1.14622 7.55955 1.62101 8.70577 2.56905 8.70577H10.7173C11.305 8.70577 11.7815 9.1822 11.7815 9.7699V30.4665C11.7815 31.379 12.8547 31.8683 13.5435 31.2698L20.6884 25.0619C20.9211 24.8598 21.0546 24.5668 21.0546 24.2587V1.86491C21.0546 1.27721 20.5782 0.800781 19.9905 0.800781Z" fill="white" fill-opacity="0.2"/>
<path d="M19.9905 0.800781H8.34577C8.06354 0.800781 7.79287 0.912895 7.59331 1.11246L1.81659 6.88918C1.14622 7.55955 1.62101 8.70577 2.56905 8.70577H10.7173C11.305 8.70577 11.7815 9.1822 11.7815 9.7699V30.4665C11.7815 31.379 12.8547 31.8683 13.5435 31.2698L20.6884 25.0619C20.9211 24.8598 21.0546 24.5668 21.0546 24.2587V1.86491C21.0546 1.27721 20.5782 0.800781 19.9905 0.800781Z" fill="white" fill-opacity="0.2"/>
<path d="M35.6631 0.875H24.9303C24.5945 0.875 24.3223 1.14724 24.3223 1.48308V8.04816C24.3223 8.37275 24.5769 8.63999 24.9013 8.64852C25.5441 8.66542 26.4546 8.67244 27.2106 8.62797C28.205 8.56948 29.0446 8.17811 29.3777 7.96798C29.4028 7.95214 29.426 7.93389 29.448 7.914L36.0706 1.9344C36.4838 1.56125 36.2199 0.875 35.6631 0.875Z" fill="#F8444F"/>
<path d="M52.3838 12.498V22H48.4189V12.498H45.3818V8.66992H55.4111V12.498H52.3838ZM66.1729 17.7227H60.6357C60.5511 17.4427 60.5088 17.1855 60.5088 16.9512C60.5088 16.6257 60.5674 16.3066 60.6846 15.9941H62.54C62.4098 15.2715 62.0029 14.9102 61.3193 14.9102C60.8636 14.9102 60.4925 15.1055 60.2061 15.4961C59.9196 15.8802 59.7764 16.375 59.7764 16.9805C59.7764 17.612 59.9131 18.123 60.1865 18.5137C60.4665 18.9043 60.8311 19.0996 61.2803 19.0996C61.6449 19.0996 61.9964 18.9173 62.335 18.5527L64.415 21.0527C63.445 21.8145 62.3675 22.1953 61.1826 22.1953C59.7373 22.1953 58.5231 21.7103 57.54 20.7402C56.557 19.7702 56.0654 18.569 56.0654 17.1367C56.0654 15.7109 56.5602 14.5065 57.5498 13.5234C58.5459 12.5404 59.7666 12.0488 61.2119 12.0488C62.6247 12.0488 63.8096 12.5306 64.7666 13.4941C65.7301 14.4512 66.2119 15.6328 66.2119 17.0391C66.2119 17.1823 66.1989 17.4102 66.1729 17.7227ZM73.6729 17.5176L77.2959 17.3809C77.1917 18.7871 76.6676 19.9427 75.7236 20.8477C74.7796 21.7526 73.6305 22.2051 72.2764 22.2051C70.8441 22.2051 69.6331 21.707 68.6436 20.7109C67.6605 19.7148 67.1689 18.4941 67.1689 17.0488C67.1689 15.6751 67.667 14.5 68.6631 13.5234C69.6592 12.5469 70.8538 12.0586 72.2471 12.0586C73.4645 12.0586 74.5387 12.4427 75.4697 13.2109C76.4007 13.9792 76.9801 14.959 77.208 16.1504L73.5068 16.2871C73.1878 15.8704 72.7842 15.6621 72.2959 15.6621C71.8792 15.6621 71.5374 15.7988 71.2705 16.0723C71.0036 16.3457 70.8701 16.6908 70.8701 17.1074C70.8701 17.5306 71.0101 17.8854 71.29 18.1719C71.5765 18.4583 71.9313 18.6016 72.3545 18.6016C72.973 18.6016 73.4124 18.2402 73.6729 17.5176ZM82.54 8.66992V12.7422C83.1585 12.293 83.777 12.0684 84.3955 12.0684C85.333 12.0684 86.0752 12.4069 86.6221 13.084C87.1755 13.7611 87.4521 14.6758 87.4521 15.8281V22H83.7998V16.8535C83.7998 16.4368 83.7542 16.1569 83.6631 16.0137C83.5785 15.8704 83.4092 15.7988 83.1553 15.7988C82.7451 15.7988 82.54 16.1016 82.54 16.707V22H78.8877V8.66992H82.54Z" fill="white"/>
<path d="M52.3838 12.498V22H48.4189V12.498H45.3818V8.66992H55.4111V12.498H52.3838ZM66.1729 17.7227H60.6357C60.5511 17.4427 60.5088 17.1855 60.5088 16.9512C60.5088 16.6257 60.5674 16.3066 60.6846 15.9941H62.54C62.4098 15.2715 62.0029 14.9102 61.3193 14.9102C60.8636 14.9102 60.4925 15.1055 60.2061 15.4961C59.9196 15.8802 59.7764 16.375 59.7764 16.9805C59.7764 17.612 59.9131 18.123 60.1865 18.5137C60.4665 18.9043 60.8311 19.0996 61.2803 19.0996C61.6449 19.0996 61.9964 18.9173 62.335 18.5527L64.415 21.0527C63.445 21.8145 62.3675 22.1953 61.1826 22.1953C59.7373 22.1953 58.5231 21.7103 57.54 20.7402C56.557 19.7702 56.0654 18.569 56.0654 17.1367C56.0654 15.7109 56.5602 14.5065 57.5498 13.5234C58.5459 12.5404 59.7666 12.0488 61.2119 12.0488C62.6247 12.0488 63.8096 12.5306 64.7666 13.4941C65.7301 14.4512 66.2119 15.6328 66.2119 17.0391C66.2119 17.1823 66.1989 17.4102 66.1729 17.7227ZM73.6729 17.5176L77.2959 17.3809C77.1917 18.7871 76.6676 19.9427 75.7236 20.8477C74.7796 21.7526 73.6305 22.2051 72.2764 22.2051C70.8441 22.2051 69.6331 21.707 68.6436 20.7109C67.6605 19.7148 67.1689 18.4941 67.1689 17.0488C67.1689 15.6751 67.667 14.5 68.6631 13.5234C69.6592 12.5469 70.8538 12.0586 72.2471 12.0586C73.4645 12.0586 74.5387 12.4427 75.4697 13.2109C76.4007 13.9792 76.9801 14.959 77.208 16.1504L73.5068 16.2871C73.1878 15.8704 72.7842 15.6621 72.2959 15.6621C71.8792 15.6621 71.5374 15.7988 71.2705 16.0723C71.0036 16.3457 70.8701 16.6908 70.8701 17.1074C70.8701 17.5306 71.0101 17.8854 71.29 18.1719C71.5765 18.4583 71.9313 18.6016 72.3545 18.6016C72.973 18.6016 73.4124 18.2402 73.6729 17.5176ZM82.54 8.66992V12.7422C83.1585 12.293 83.777 12.0684 84.3955 12.0684C85.333 12.0684 86.0752 12.4069 86.6221 13.084C87.1755 13.7611 87.4521 14.6758 87.4521 15.8281V22H83.7998V16.8535C83.7998 16.4368 83.7542 16.1569 83.6631 16.0137C83.5785 15.8704 83.4092 15.7988 83.1553 15.7988C82.7451 15.7988 82.54 16.1016 82.54 16.707V22H78.8877V8.66992H82.54Z" fill="white" fill-opacity="1"/>
<path d="M52.3838 12.498V22H48.4189V12.498H45.3818V8.66992H55.4111V12.498H52.3838ZM66.1729 17.7227H60.6357C60.5511 17.4427 60.5088 17.1855 60.5088 16.9512C60.5088 16.6257 60.5674 16.3066 60.6846 15.9941H62.54C62.4098 15.2715 62.0029 14.9102 61.3193 14.9102C60.8636 14.9102 60.4925 15.1055 60.2061 15.4961C59.9196 15.8802 59.7764 16.375 59.7764 16.9805C59.7764 17.612 59.9131 18.123 60.1865 18.5137C60.4665 18.9043 60.8311 19.0996 61.2803 19.0996C61.6449 19.0996 61.9964 18.9173 62.335 18.5527L64.415 21.0527C63.445 21.8145 62.3675 22.1953 61.1826 22.1953C59.7373 22.1953 58.5231 21.7103 57.54 20.7402C56.557 19.7702 56.0654 18.569 56.0654 17.1367C56.0654 15.7109 56.5602 14.5065 57.5498 13.5234C58.5459 12.5404 59.7666 12.0488 61.2119 12.0488C62.6247 12.0488 63.8096 12.5306 64.7666 13.4941C65.7301 14.4512 66.2119 15.6328 66.2119 17.0391C66.2119 17.1823 66.1989 17.4102 66.1729 17.7227ZM73.6729 17.5176L77.2959 17.3809C77.1917 18.7871 76.6676 19.9427 75.7236 20.8477C74.7796 21.7526 73.6305 22.2051 72.2764 22.2051C70.8441 22.2051 69.6331 21.707 68.6436 20.7109C67.6605 19.7148 67.1689 18.4941 67.1689 17.0488C67.1689 15.6751 67.667 14.5 68.6631 13.5234C69.6592 12.5469 70.8538 12.0586 72.2471 12.0586C73.4645 12.0586 74.5387 12.4427 75.4697 13.2109C76.4007 13.9792 76.9801 14.959 77.208 16.1504L73.5068 16.2871C73.1878 15.8704 72.7842 15.6621 72.2959 15.6621C71.8792 15.6621 71.5374 15.7988 71.2705 16.0723C71.0036 16.3457 70.8701 16.6908 70.8701 17.1074C70.8701 17.5306 71.0101 17.8854 71.29 18.1719C71.5765 18.4583 71.9313 18.6016 72.3545 18.6016C72.973 18.6016 73.4124 18.2402 73.6729 17.5176ZM82.54 8.66992V12.7422C83.1585 12.293 83.777 12.0684 84.3955 12.0684C85.333 12.0684 86.0752 12.4069 86.6221 13.084C87.1755 13.7611 87.4521 14.6758 87.4521 15.8281V22H83.7998V16.8535C83.7998 16.4368 83.7542 16.1569 83.6631 16.0137C83.5785 15.8704 83.4092 15.7988 83.1553 15.7988C82.7451 15.7988 82.54 16.1016 82.54 16.707V22H78.8877V8.66992H82.54Z" fill="white" fill-opacity="1"/>
<path d="M96.9053 12.2637L92.3545 22.3809L87.8623 12.2637H91.3486L92.3838 14.8906L93.5166 12.2637H96.9053ZM106.876 17.7227H101.339C101.254 17.4427 101.212 17.1855 101.212 16.9512C101.212 16.6257 101.271 16.3066 101.388 15.9941H103.243C103.113 15.2715 102.706 14.9102 102.022 14.9102C101.567 14.9102 101.196 15.1055 100.909 15.4961C100.623 15.8802 100.479 16.375 100.479 16.9805C100.479 17.612 100.616 18.123 100.89 18.5137C101.17 18.9043 101.534 19.0996 101.983 19.0996C102.348 19.0996 102.7 18.9173 103.038 18.5527L105.118 21.0527C104.148 21.8145 103.071 22.1953 101.886 22.1953C100.44 22.1953 99.2262 21.7103 98.2432 20.7402C97.2601 19.7702 96.7686 18.569 96.7686 17.1367C96.7686 15.7109 97.2633 14.5065 98.2529 13.5234C99.249 12.5404 100.47 12.0488 101.915 12.0488C103.328 12.0488 104.513 12.5306 105.47 13.4941C106.433 14.4512 106.915 15.6328 106.915 17.0391C106.915 17.1823 106.902 17.4102 106.876 17.7227ZM113.741 12.166V16.0723C113.487 15.929 113.256 15.8574 113.048 15.8574C112.384 15.8574 112.052 16.3652 112.052 17.3809V22H108.399V16.6777C108.399 15.2715 108.784 14.1517 109.552 13.3184C110.32 12.4785 111.345 12.0586 112.628 12.0586C112.914 12.0586 113.285 12.0944 113.741 12.166ZM120.929 12.4004V16.248C120.414 16.248 120.06 16.3457 119.864 16.541C119.675 16.7298 119.555 17.1074 119.503 17.6738C119.334 19.5553 118.604 20.8835 117.315 21.6582C116.632 22.0618 115.662 22.2637 114.405 22.2637H113.897V18.3965H114.063C114.649 18.3965 115.066 18.276 115.313 18.0352C115.567 17.7878 115.714 17.3581 115.753 16.7461C115.805 15.75 115.896 15.0501 116.026 14.6465C116.163 14.2428 116.437 13.8424 116.847 13.4453C117.563 12.7487 118.556 12.4004 119.825 12.4004H120.929Z" fill="#F8444F"/>
</svg>
